:SAMPLES-PER-SECOND 30
:FULLY-SPECIFIED
:DEGREES
130
root  -65.368 41.4956 1.32828 92.9407 -89.548 -93.6091
RightUpLeg  -4.37866 -7.68882 -7.17439
RightLeg  3.6499 -3.6688 2.01521
RightFoot  2.58717 -0.302468 2.61311
RightToes  0.00048216 0.542163 -0.142577
Spine  5.02471 0.513738 2.52626
Spine1  -1.89721 1.52031 -5.7262
HEad  -9.98406 0.0314609 2.5539
LeftShoulder1  0.234804 1.28348 -2.33386
LeftArm  -24.0725 8.31331 -2.54285
LeftForeArm  11.1711 -9.33861 -0.708054
LeftHand  -0.25398 0.0180481 5.50724
RightShoulder  0.851917 1.09729 11.3558
RightArm  -21.1456 -7.42218 0.392917
RightForeArm  -11.7453 2.68511 3.20676
RightHand  -1.55971 4.67095 -18.2104
LeftUpLeg  -2.89773 5.00018 0.627275
LeftLeg  4.22748 11.0378 -4.8119
LeftFoot  -1.0421 -0.477435 5.36351
LeftToes  1.06248e-005 4.65856e-005 -8.185e-006
131
root  -65.597 41.5487 1.30109 153.55 -88.7694 -154.108
RightUpLeg  -3.68523 -7.55096 -6.92156
RightLeg  2.35074 -2.94297 2.24051
RightFoot  2.99235 -0.323438 2.73387
RightToes  0.00048216 0.542163 -0.142577
Spine  4.65449 0.699634 3.48182
Spine1  -2.24836 1.85754 -6.7264
HEad  -9.88476 -0.0935085 2.53448
LeftShoulder1  0.0861608 2.4165 0.582266
LeftArm  -25.4238 7.91905 -1.7893
LeftForeArm  11.5475 -10.5048 -0.573286
LeftHand  -0.25398 0.0180481 5.50724
RightShoulder  0.669822 0.583311 9.06464
RightArm  -22.1524 -6.42281 -1.25893
RightForeArm  -11.2894 2.01345 2.81243
RightHand  -1.57487 4.86285 -18.0532
LeftUpLeg  -2.29372 4.96748 0.84177
LeftLeg  3.64485 11.8909 -4.61848
LeftFoot  -1.2293 -0.442973 5.08675
LeftToes  1.06248e-005 4.65856e-005 -8.185e-006
132
root  -65.7771 41.5689 1.24068 155.429 -88.1791 -155.863
RightUpLeg  -3.26263 -7.64301 -6.80481
RightLeg  1.61263 -2.34843 2.597
RightFoot  3.24814 -0.3191 2.66557
RightToes  0.00048216 0.542163 -0.142577
Spine  4.62689 0.751588 4.04782
Spine1  -3.06172 1.97038 -7.39548
HEad  -9.355 -0.111142 2.53715
LeftShoulder1  0.0243753 3.09354 3.36651
LeftArm  -26.5705 7.8222 -1.52759
LeftForeArm  11.4562 -11.3223 -0.484927
LeftHand  -0.25398 0.0180481 5.50724
RightShoulder  0.586259 0.476773 7.05762
RightArm  -22.1309 -5.63722 -2.87113
RightForeArm  -12.2804 1.26985 2.79923
RightHand  -1.62151 5.02252 -18.3002
LeftUpLeg  -2.03251 5.05688 1.0749
LeftLeg  3.54273 12.3245 -4.51153
LeftFoot  -1.55224 -0.405274 4.8399
LeftToes  1.06248e-005 4.65856e-005 -8.185e-006
133
root  -65.9079 41.577 1.14411 156.011 -88.0233 -156.188
RightUpLeg  -3.26155 -7.62648 -6.63271
RightLeg  1.40816 -2.29613 2.7399
RightFoot  3.37607 -0.294171 2.4554
RightToes  0.00048216 0.542163 -0.142577
Spine  4.04942 0.676413 3.56801
Spine1  -2.49518 1.74387 -6.41077
HEad  -9.56876 0.446392 2.04854
LeftShoulder1  -0.0569579 4.71121 4.13195
LeftArm  -27.7167 6.29288 -0.980109
LeftForeArm  10.7816 -11.3211 -0.336043
LeftHand  -0.25398 0.0180481 5.50724
RightShoulder  0.366708 -0.545566 4.5547
RightArm  -22.0425 -3.5579 -3.41767
RightForeArm  -14.2047 0.348526 3.07242
RightHand  -1.74843 5.43643 -18.9568
LeftUpLeg  -2.0533 5.08483 1.23747
LeftLeg  3.49755 12.4251 -4.45261
LeftFoot  -1.70693 -0.384942 4.68792
LeftToes  1.06248e-005 4.65856e-005 -8.185e-006
134
root  -66.002 41.5863 1.02154 155.257 -88.1413 -155.181
RightUpLeg  -3.42236 -7.43996 -6.39478
RightLeg  1.49866 -2.61313 2.63018
RightFoot  3.22305 -0.279398 2.35782
RightToes  0.00048216 0.542163 -0.142577
Spine  4.01218 0.604071 3.36331
Spine1  -2.91953 1.60683 -6.17203
HEad  -9.42191 0.653333 2.15422
LeftShoulder1  -0.0448248 4.73799 5.38002
LeftArm  -27.8839 5.55672 -0.791015
LeftForeArm  10.0718 -10.4033 -0.135283
LeftHand  -0.25398 0.0180481 5.50724
RightShoulder  0.266307 -1.13863 3.24474
RightArm  -20.9721 -2.30342 -4.33943
RightForeArm  -16.9224 -0.370305 3.64717
RightHand  -2.0517 6.58441 -20.0925
LeftUpLeg  -2.13287 5.00474 1.32749
LeftLeg  3.41129 12.3531 -4.34318
LeftFoot  -1.75851 -0.363721 4.46379
LeftToes  1.06248e-005 4.65856e-005 -8.185e-006
135
root  -66.0725 41.5959 0.893205 152.783 -88.364 -152.635
RightUpLeg  -3.39012 -7.35086 -6.22804
RightLeg  1.60189 -2.93374 2.59606
RightFoot  2.99976 -0.253449 2.17667
RightToes  0.00048216 0.542163 -0.142577
Spine  4.131 0.488657 3.28679
Spine1  -3.19494 1.47689 -6.15788
HEad  -9.41804 0.672343 2.38556
LeftShoulder1  -0.0247314 4.34799 6.12345
LeftArm  -27.4631 4.95182 -0.856649
LeftForeArm  8.75913 -8.9574 -0.0438995
LeftHand  -0.25398 0.0180481 5.50724
RightShoulder  0.199355 -1.68398 2.89132
RightArm  -21.0923 -1.28807 -4.8969
RightForeArm  -18.9133 -0.612214 3.84311
RightHand  -2.40239 7.85459 -21.2548
LeftUpLeg  -2.08666 4.96081 1.44421
LeftLeg  3.38257 12.1269 -4.23477
LeftFoot  -1.85023 -0.332657 4.14023
LeftToes  1.06248e-005 4.65856e-005 -8.185e-006
136
root  -66.1255 41.6041 0.773611 148.557 -88.5882 -148.428
RightUpLeg  -3.2013 -7.43395 -6.1524
RightLeg  1.57307 -3.14797 2.74991
RightFoot  2.93307 -0.214249 1.8706
RightToes  0.00048216 0.542163 -0.142577
Spine  4.3023 0.351997 3.2684
Spine1  -3.39181 1.30815 -5.99681
HEad  -9.15571 0.568991 2.26849
LeftShoulder1  -0.00729811 3.78625 6.04284
LeftArm  -26.2795 4.52252 -1.02955
LeftForeArm  7.12372 -7.40043 -0.226798
LeftHand  -0.25398 0.0180481 5.50724
RightShoulder  0.172656 -1.91715 2.79196
RightArm  -21.4629 -0.520662 -5.07287
RightForeArm  -19.7852 -0.824385 3.85138
RightHand  -2.60943 8.50058 -21.9881
LeftUpLeg  -1.98237 4.99499 1.60497
LeftLeg  3.37206 11.8181 -4.19723
LeftFoot  -1.91668 -0.308004 3.87602
LeftToes  1.06248e-005 4.65856e-005 -8.185e-006
137
root  -66.1621 41.6117 0.663377 144.232 -88.7737 -144.033
RightUpLeg  -3.10492 -7.48681 -6.07211
RightLeg  1.46336 -3.34093 2.87839
RightFoot  2.90202 -0.1954 1.72213
RightToes  0.00048216 0.542163 -0.142577
Spine  4.35187 0.231787 3.13571
Spine1  -3.46671 1.09234 -5.41037
HEad  -8.70177 0.503047 1.76186
LeftShoulder1  0.0097385 3.29842 4.98939
LeftArm  -24.2967 4.09338 -1.1223
LeftForeArm  6.47201 -5.9682 -0.698506
LeftHand  -0.25398 0.0180481 5.50724
RightShoulder  0.164925 -1.95049 2.49521
RightArm  -21.3822 0.195207 -4.8466
RightForeArm  -19.7005 -1.27187 3.91
RightHand  -2.65344 8.60029 -22.1917
LeftUpLeg  -1.99119 4.99959 1.72954
LeftLeg  3.33216 11.5874 -4.16756
LeftFoot  -1.91862 -0.29449 3.71301
LeftToes  1.06248e-005 4.65856e-005 -8.185e-006
138
root  -66.184 41.6165 0.560201 142.177 -88.8833 -141.876
RightUpLeg  -3.12474 -7.44177 -5.95457
RightLeg  1.41562 -3.49637 2.89527
RightFoot  2.76145 -0.19238 1.70708
RightToes  0.00048216 0.542163 -0.142577
Spine  4.35976 0.139114 3.08013
Spine1  -3.43853 0.926479 -4.93339
HEad  -8.33654 0.477307 1.44566
LeftShoulder1  0.0364676 2.83403 3.7265
LeftArm  -21.9466 3.68741 -1.43287
LeftForeArm  7.72304 -4.53961 -1.28807
LeftHand  -0.25398 0.0180481 5.50724
RightShoulder  0.172589 -1.88543 2.54801
RightArm  -21.5472 0.774749 -4.52229
RightForeArm  -18.0143 -1.61592 3.78161
RightHand  -2.46638 7.9984 -21.5567
LeftUpLeg  -2.09724 4.964 1.81196
LeftLeg  3.39022 11.4888 -4.07728
LeftFoot  -2.00012 -0.277838 3.54758
LeftToes  1.06248e-005 4.65856e-005 -8.185e-006
139
root  -66.1976 41.6162 0.465017 144.696 -88.8564 -144.39
RightUpLeg  -3.1545 -7.42543 -5.84507
RightLeg  1.50677 -3.48143 2.92815
RightFoot  2.61239 -0.169917 1.5337
RightToes  0.00048216 0.542163 -0.142577
Spine  4.41745 0.137814 3.21252
Spine1  -3.26616 0.902187 -4.7099
HEad  -8.18116 0.373997 1.43379
LeftShoulder1  0.0814362 2.25516 2.39867
LeftArm  -19.6884 3.2681 -1.91671
LeftForeArm  9.16356 -2.74514 -1.84699
LeftHand  -0.25398 0.0180481 5.50724
RightShoulder  0.179958 -1.85281 2.83925
RightArm  -22.2419 1.05931 -3.96274
RightForeArm  -15.1982 -1.58171 3.41727
RightHand  -2.07481 6.70436 -20.1259
LeftUpLeg  -2.17027 4.9799 1.9182
LeftLeg  3.62365 11.4905 -3.96804
LeftFoot  -2.22717 -0.252572 3.33678
LeftToes  1.06248e-005 4.65856e-005 -8.185e-006
